<mxfile host="app.diagrams.net" agent="Mozilla/5.0 (X11; Linux x86_64; rv:137.0) Gecko/20100101 Firefox/137.0" version="26.2.14" pages="2">
  <diagram name="Page-1" id="MFZSML2b7RBqSPVqTth8">
    <mxGraphModel dx="2377" dy="1283" grid="1" gridSize="10" guides="1" tooltips="1" connect="1" arrows="1" fold="1" page="1" pageScale="1" pageWidth="850" pageHeight="1100" math="0" shadow="0">
      <root>
        <mxCell id="0" />
        <mxCell id="1" parent="0" />
        <mxCell id="lrz9_lm1FMnTXzJSDYd8-1" style="edgeStyle=orthogonalEdgeStyle;rounded=0;orthogonalLoop=1;jettySize=auto;html=1;entryX=0.5;entryY=0;entryDx=0;entryDy=0;" edge="1" parent="1" source="lrz9_lm1FMnTXzJSDYd8-3" target="lrz9_lm1FMnTXzJSDYd8-9">
          <mxGeometry relative="1" as="geometry" />
        </mxCell>
        <mxCell id="lrz9_lm1FMnTXzJSDYd8-2" value="&lt;font style=&quot;font-size: 15px;&quot;&gt;Client chooses &quot;My bookings&quot;&lt;/font&gt;" style="edgeLabel;html=1;align=center;verticalAlign=middle;resizable=0;points=[];" vertex="1" connectable="0" parent="lrz9_lm1FMnTXzJSDYd8-1">
          <mxGeometry x="-0.0522" y="2" relative="1" as="geometry">
            <mxPoint as="offset" />
          </mxGeometry>
        </mxCell>
        <mxCell id="lrz9_lm1FMnTXzJSDYd8-3" value="" style="rounded=0;whiteSpace=wrap;html=1;" vertex="1" parent="1">
          <mxGeometry x="110" y="1020" width="440" height="240" as="geometry" />
        </mxCell>
        <mxCell id="lrz9_lm1FMnTXzJSDYd8-4" value="&lt;font style=&quot;font-size: 20px;&quot;&gt;Dashboard&lt;/font&gt;" style="text;html=1;align=center;verticalAlign=middle;whiteSpace=wrap;rounded=0;" vertex="1" parent="1">
          <mxGeometry x="130" y="990" width="60" height="30" as="geometry" />
        </mxCell>
        <mxCell id="lrz9_lm1FMnTXzJSDYd8-5" value="&lt;font style=&quot;font-size: 18px;&quot;&gt;Find service &lt;/font&gt;" style="rounded=0;whiteSpace=wrap;html=1;" vertex="1" parent="1">
          <mxGeometry x="225" y="1100" width="200" height="40" as="geometry" />
        </mxCell>
        <mxCell id="lrz9_lm1FMnTXzJSDYd8-6" value="&lt;font style=&quot;font-size: 18px;&quot;&gt;Search on map&lt;/font&gt;" style="rounded=0;whiteSpace=wrap;html=1;" vertex="1" parent="1">
          <mxGeometry x="225" y="1050" width="200" height="37.5" as="geometry" />
        </mxCell>
        <mxCell id="lrz9_lm1FMnTXzJSDYd8-7" value="&lt;font style=&quot;font-size: 18px;&quot;&gt;My bookings&lt;/font&gt;" style="rounded=0;whiteSpace=wrap;html=1;" vertex="1" parent="1">
          <mxGeometry x="225" y="1155" width="200" height="40" as="geometry" />
        </mxCell>
        <mxCell id="lrz9_lm1FMnTXzJSDYd8-8" value="&lt;font style=&quot;font-size: 18px;&quot;&gt;...&lt;/font&gt;" style="rounded=0;whiteSpace=wrap;html=1;" vertex="1" parent="1">
          <mxGeometry x="225" y="1205" width="200" height="40" as="geometry" />
        </mxCell>
        <mxCell id="pTFOjj_SIschiUt4O7y0-25" style="edgeStyle=orthogonalEdgeStyle;rounded=0;orthogonalLoop=1;jettySize=auto;html=1;entryX=0.5;entryY=1;entryDx=0;entryDy=0;" edge="1" parent="1" source="lrz9_lm1FMnTXzJSDYd8-9" target="pTFOjj_SIschiUt4O7y0-21">
          <mxGeometry relative="1" as="geometry">
            <mxPoint x="430" y="1770" as="targetPoint" />
            <Array as="points">
              <mxPoint x="330" y="1690" />
              <mxPoint x="1340" y="1690" />
            </Array>
          </mxGeometry>
        </mxCell>
        <mxCell id="pTFOjj_SIschiUt4O7y0-26" value="&lt;div style=&quot;background-color: transparent;&quot;&gt;&lt;font style=&quot;background-color: transparent; font-size: 15px;&quot;&gt;Client chooses &quot;Can&#39;t refund&quot; of some service&lt;/font&gt;&lt;/div&gt;" style="edgeLabel;html=1;align=center;verticalAlign=middle;resizable=0;points=[];" vertex="1" connectable="0" parent="pTFOjj_SIschiUt4O7y0-25">
          <mxGeometry x="-0.0682" y="-1" relative="1" as="geometry">
            <mxPoint x="-1" y="19" as="offset" />
          </mxGeometry>
        </mxCell>
        <mxCell id="lrz9_lm1FMnTXzJSDYd8-9" value="" style="rounded=0;whiteSpace=wrap;html=1;movable=1;resizable=1;rotatable=1;deletable=1;editable=1;locked=0;connectable=1;" vertex="1" parent="1">
          <mxGeometry x="110" y="1320" width="440" height="240" as="geometry" />
        </mxCell>
        <mxCell id="lrz9_lm1FMnTXzJSDYd8-12" value="&lt;font style=&quot;font-size: 18px;&quot;&gt;My bookings&lt;/font&gt;" style="text;html=1;align=center;verticalAlign=middle;whiteSpace=wrap;rounded=0;" vertex="1" parent="1">
          <mxGeometry x="110" y="1290" width="110" height="30" as="geometry" />
        </mxCell>
        <mxCell id="lrz9_lm1FMnTXzJSDYd8-13" value="&lt;font style=&quot;font-size: 18px;&quot;&gt;My bookings&lt;/font&gt;" style="text;html=1;align=center;verticalAlign=middle;whiteSpace=wrap;rounded=0;" vertex="1" parent="1">
          <mxGeometry x="270" y="1330" width="120" height="30" as="geometry" />
        </mxCell>
        <mxCell id="lrz9_lm1FMnTXzJSDYd8-14" value="&lt;font style=&quot;font-size: 20px;&quot;&gt;Dashboard&lt;/font&gt;" style="text;html=1;align=center;verticalAlign=middle;whiteSpace=wrap;rounded=0;" vertex="1" parent="1">
          <mxGeometry x="290" y="1020" width="60" height="30" as="geometry" />
        </mxCell>
        <mxCell id="pTFOjj_SIschiUt4O7y0-19" style="edgeStyle=orthogonalEdgeStyle;rounded=0;orthogonalLoop=1;jettySize=auto;html=1;entryX=0.5;entryY=1;entryDx=0;entryDy=0;" edge="1" parent="1" source="lrz9_lm1FMnTXzJSDYd8-17" target="pTFOjj_SIschiUt4O7y0-15">
          <mxGeometry relative="1" as="geometry" />
        </mxCell>
        <mxCell id="pTFOjj_SIschiUt4O7y0-20" value="&lt;font style=&quot;font-size: 15px;&quot;&gt;Client chooses reason of the request&lt;/font&gt;" style="edgeLabel;html=1;align=center;verticalAlign=middle;resizable=0;points=[];" vertex="1" connectable="0" parent="pTFOjj_SIschiUt4O7y0-19">
          <mxGeometry x="0.0381" y="2" relative="1" as="geometry">
            <mxPoint x="4" y="-10" as="offset" />
          </mxGeometry>
        </mxCell>
        <mxCell id="lrz9_lm1FMnTXzJSDYd8-17" value="" style="rounded=0;whiteSpace=wrap;html=1;movable=1;resizable=1;rotatable=1;deletable=1;editable=1;locked=0;connectable=1;" vertex="1" parent="1">
          <mxGeometry x="620" y="1320" width="440" height="240" as="geometry" />
        </mxCell>
        <mxCell id="lrz9_lm1FMnTXzJSDYd8-20" value="&lt;font style=&quot;font-size: 20px;&quot;&gt;Details of the booking&lt;/font&gt;" style="text;html=1;align=center;verticalAlign=middle;whiteSpace=wrap;rounded=0;" vertex="1" parent="1">
          <mxGeometry x="620" y="1290" width="200" height="30" as="geometry" />
        </mxCell>
        <mxCell id="lrz9_lm1FMnTXzJSDYd8-21" style="edgeStyle=orthogonalEdgeStyle;rounded=0;orthogonalLoop=1;jettySize=auto;html=1;entryX=0.467;entryY=1.002;entryDx=0;entryDy=0;entryPerimeter=0;" edge="1" parent="1" target="lrz9_lm1FMnTXzJSDYd8-17">
          <mxGeometry relative="1" as="geometry">
            <mxPoint x="330" y="1560" as="sourcePoint" />
            <Array as="points">
              <mxPoint x="430" y="1620" />
              <mxPoint x="825" y="1620" />
              <mxPoint x="825" y="1561" />
            </Array>
          </mxGeometry>
        </mxCell>
        <mxCell id="lrz9_lm1FMnTXzJSDYd8-22" value="&lt;div style=&quot;background-color: transparent;&quot;&gt;&lt;font style=&quot;background-color: transparent; font-size: 15px;&quot;&gt;Client chooses &quot;Request refund&quot; of some service&lt;/font&gt;&lt;/div&gt;" style="edgeLabel;html=1;align=center;verticalAlign=middle;resizable=0;points=[];" vertex="1" connectable="0" parent="lrz9_lm1FMnTXzJSDYd8-21">
          <mxGeometry x="0.0709" y="-1" relative="1" as="geometry">
            <mxPoint x="-14" y="14" as="offset" />
          </mxGeometry>
        </mxCell>
        <mxCell id="lrz9_lm1FMnTXzJSDYd8-45" value="Service1: Date, business, price" style="rounded=0;whiteSpace=wrap;html=1;" vertex="1" parent="1">
          <mxGeometry x="152.5" y="1363.75" width="230" height="30" as="geometry" />
        </mxCell>
        <mxCell id="lrz9_lm1FMnTXzJSDYd8-46" value="Service2: Date, business, price" style="rounded=0;whiteSpace=wrap;html=1;" vertex="1" parent="1">
          <mxGeometry x="152.5" y="1405" width="230" height="30" as="geometry" />
        </mxCell>
        <mxCell id="lrz9_lm1FMnTXzJSDYd8-47" value="Service3: Date, business, price" style="rounded=0;whiteSpace=wrap;html=1;" vertex="1" parent="1">
          <mxGeometry x="152.5" y="1445" width="230" height="30" as="geometry" />
        </mxCell>
        <mxCell id="lrz9_lm1FMnTXzJSDYd8-48" value="Service4: Date, business, price" style="rounded=0;whiteSpace=wrap;html=1;" vertex="1" parent="1">
          <mxGeometry x="152.5" y="1485" width="230" height="30" as="geometry" />
        </mxCell>
        <mxCell id="pTFOjj_SIschiUt4O7y0-1" value="Request refund" style="rounded=0;whiteSpace=wrap;html=1;" vertex="1" parent="1">
          <mxGeometry x="387.5" y="1363.75" width="120" height="31.25" as="geometry" />
        </mxCell>
        <mxCell id="pTFOjj_SIschiUt4O7y0-2" value="Can&#39;t refund " style="rounded=0;whiteSpace=wrap;html=1;" vertex="1" parent="1">
          <mxGeometry x="387.5" y="1405" width="120" height="31.25" as="geometry" />
        </mxCell>
        <mxCell id="pTFOjj_SIschiUt4O7y0-3" value="Request refund" style="rounded=0;whiteSpace=wrap;html=1;" vertex="1" parent="1">
          <mxGeometry x="387.5" y="1445" width="120" height="31.25" as="geometry" />
        </mxCell>
        <mxCell id="pTFOjj_SIschiUt4O7y0-4" value="Request refund" style="rounded=0;whiteSpace=wrap;html=1;" vertex="1" parent="1">
          <mxGeometry x="387.5" y="1485" width="120" height="31.25" as="geometry" />
        </mxCell>
        <mxCell id="pTFOjj_SIschiUt4O7y0-5" value="&lt;span style=&quot;font-size: 15px;&quot;&gt;&lt;b&gt;Service 1&lt;/b&gt;&lt;/span&gt;" style="text;html=1;align=left;verticalAlign=middle;whiteSpace=wrap;rounded=0;" vertex="1" parent="1">
          <mxGeometry x="840" y="1375" width="190" height="30" as="geometry" />
        </mxCell>
        <mxCell id="pTFOjj_SIschiUt4O7y0-6" value="&lt;span style=&quot;font-size: 15px;&quot;&gt;&lt;b&gt;Price: x$&lt;/b&gt;&lt;/span&gt;" style="text;html=1;align=left;verticalAlign=middle;whiteSpace=wrap;rounded=0;" vertex="1" parent="1">
          <mxGeometry x="840" y="1400.63" width="200" height="30" as="geometry" />
        </mxCell>
        <mxCell id="pTFOjj_SIschiUt4O7y0-7" value="&lt;span style=&quot;font-size: 15px;&quot;&gt;&lt;b&gt;Adress: Street X/Y, City&lt;/b&gt;&lt;/span&gt;" style="text;html=1;align=left;verticalAlign=middle;whiteSpace=wrap;rounded=0;" vertex="1" parent="1">
          <mxGeometry x="840" y="1426.25" width="200" height="30" as="geometry" />
        </mxCell>
        <mxCell id="pTFOjj_SIschiUt4O7y0-8" value="&lt;span style=&quot;font-size: 15px;&quot;&gt;&lt;b&gt;Time: dd:mm:yy hh:mm&lt;/b&gt;&lt;/span&gt;" style="text;html=1;align=left;verticalAlign=middle;whiteSpace=wrap;rounded=0;" vertex="1" parent="1">
          <mxGeometry x="840" y="1455" width="200" height="30" as="geometry" />
        </mxCell>
        <mxCell id="pTFOjj_SIschiUt4O7y0-9" value="Canceled more than day ahead" style="rounded=0;whiteSpace=wrap;html=1;" vertex="1" parent="1">
          <mxGeometry x="635" y="1445" width="185" height="30" as="geometry" />
        </mxCell>
        <mxCell id="pTFOjj_SIschiUt4O7y0-10" value="Canceled by the business" style="rounded=0;whiteSpace=wrap;html=1;" vertex="1" parent="1">
          <mxGeometry x="635" y="1390" width="185" height="30" as="geometry" />
        </mxCell>
        <mxCell id="pTFOjj_SIschiUt4O7y0-11" value="Unsatisfied with a service" style="rounded=0;whiteSpace=wrap;html=1;" vertex="1" parent="1">
          <mxGeometry x="635" y="1500" width="185" height="30" as="geometry" />
        </mxCell>
        <mxCell id="pTFOjj_SIschiUt4O7y0-12" value="&lt;div&gt;Provide reason&lt;/div&gt;" style="rounded=0;whiteSpace=wrap;html=1;" vertex="1" parent="1">
          <mxGeometry x="825" y="1500" width="230" height="30" as="geometry" />
        </mxCell>
        <mxCell id="pTFOjj_SIschiUt4O7y0-13" value="&lt;font style=&quot;font-size: 18px;&quot;&gt;Choose reason to refund&lt;/font&gt;" style="text;html=1;align=center;verticalAlign=middle;whiteSpace=wrap;rounded=0;" vertex="1" parent="1">
          <mxGeometry x="737.5" y="1330" width="200" height="30" as="geometry" />
        </mxCell>
        <mxCell id="pTFOjj_SIschiUt4O7y0-15" value="" style="rounded=0;whiteSpace=wrap;html=1;" vertex="1" parent="1">
          <mxGeometry x="617.5" y="1020" width="440" height="240" as="geometry" />
        </mxCell>
        <mxCell id="pTFOjj_SIschiUt4O7y0-16" value="&lt;span style=&quot;font-size: 20px;&quot;&gt;Confirmation page&lt;/span&gt;" style="text;html=1;align=left;verticalAlign=middle;whiteSpace=wrap;rounded=0;" vertex="1" parent="1">
          <mxGeometry x="617.5" y="990" width="200" height="30" as="geometry" />
        </mxCell>
        <mxCell id="pTFOjj_SIschiUt4O7y0-17" value="&lt;span style=&quot;font-size: 15px;&quot;&gt;&lt;b style=&quot;background-color: transparent;&quot;&gt;&lt;br&gt;&lt;/b&gt;&lt;/span&gt;&lt;div&gt;&lt;font style=&quot;font-size: 20px;&quot;&gt;&lt;b style=&quot;background-color: transparent;&quot;&gt;Working on your refund request&lt;/b&gt;&lt;/font&gt;&lt;/div&gt;" style="text;html=1;align=center;verticalAlign=middle;whiteSpace=wrap;rounded=0;" vertex="1" parent="1">
          <mxGeometry x="727.5" y="1105" width="220" height="30" as="geometry" />
        </mxCell>
        <mxCell id="pTFOjj_SIschiUt4O7y0-18" value="&lt;span style=&quot;color: rgb(236, 236, 236); font-family: &amp;quot;Google Sans&amp;quot;, Arial, sans-serif; font-size: 20px; text-align: start; background-color: rgb(16, 18, 24);&quot;&gt;✓&lt;/span&gt;" style="ellipse;whiteSpace=wrap;html=1;aspect=fixed;" vertex="1" parent="1">
          <mxGeometry x="807.5" y="1185" width="60" height="60" as="geometry" />
        </mxCell>
        <mxCell id="pTFOjj_SIschiUt4O7y0-21" value="" style="rounded=0;whiteSpace=wrap;html=1;" vertex="1" parent="1">
          <mxGeometry x="1120" y="1165" width="440" height="240" as="geometry" />
        </mxCell>
        <mxCell id="pTFOjj_SIschiUt4O7y0-22" value="&lt;font style=&quot;font-size: 20px;&quot;&gt;Denial page&lt;/font&gt;" style="text;html=1;align=left;verticalAlign=middle;whiteSpace=wrap;rounded=0;" vertex="1" parent="1">
          <mxGeometry x="1120" y="1135" width="200" height="30" as="geometry" />
        </mxCell>
        <mxCell id="pTFOjj_SIschiUt4O7y0-23" value="&lt;font style=&quot;font-size: 20px;&quot;&gt;We are sorry, but you can&#39;t get refund for this service &lt;/font&gt;" style="text;html=1;align=center;verticalAlign=middle;whiteSpace=wrap;rounded=0;" vertex="1" parent="1">
          <mxGeometry x="1230" y="1250" width="220" height="30" as="geometry" />
        </mxCell>
        <mxCell id="pTFOjj_SIschiUt4O7y0-24" value="&lt;span style=&quot;color: rgb(236, 236, 236); font-family: &amp;quot;Google Sans&amp;quot;, Arial, sans-serif; font-size: 20px; text-align: start; background-color: rgb(16, 18, 24);&quot;&gt;✓&lt;/span&gt;" style="ellipse;whiteSpace=wrap;html=1;aspect=fixed;" vertex="1" parent="1">
          <mxGeometry x="1310" y="1330" width="60" height="60" as="geometry" />
        </mxCell>
      </root>
    </mxGraphModel>
  </diagram>
  <diagram id="MlURs_UmKjBnsXkqtZhJ" name="Page-2">
    <mxGraphModel dx="1426" dy="770" grid="1" gridSize="10" guides="1" tooltips="1" connect="1" arrows="1" fold="1" page="1" pageScale="1" pageWidth="850" pageHeight="1100" math="0" shadow="0">
      <root>
        <mxCell id="0" />
        <mxCell id="1" parent="0" />
      </root>
    </mxGraphModel>
  </diagram>
</mxfile>
